<?xml version="1.0" encoding="utf-8"?>
<!-- Generator: Adobe Illustrator 25.2.3, SVG Export Plug-In . SVG Version: 6.00 Build 0)  -->
<svg version="1.1" id="Layer_1" xmlns="http://www.w3.org/2000/svg" xmlns:xlink="http://www.w3.org/1999/xlink" x="0px" y="0px"
	 viewBox="0 0 512 512" style="enable-background:new 0 0 512 512;" xml:space="preserve">
<style type="text/css">
	.st0{fill:#FFFFFF;}
</style>
<circle cx="256" cy="256" r="256"/>
<path class="st0" d="M233.6,106.5v24.9h160.6v-24.9H233.6z M212.6,203.1v24.8h203v-24.8H212.6z M263.4,217.8
	c-2.1,85.7-8.1,137.6-70.7,166.2c6,4.6,13.3,14,16.5,20c67.9-32.9,77-91.7,79.8-186.2H263.4z M327.8,219.6v145.6
	c0,27.3,5.6,35,29.8,35c5.2,0,24.9,0,30.1,0c21.7,0,28-13.6,30.4-63c-7.3-2.1-17.1-6.3-22.8-10.5c-0.7,42.7-2.1,50.1-10.1,50.1
	c-4.2,0-20.3,0-23.8,0c-7.4,0-8.8-1.4-8.8-11.6V219.6H327.8z M108.3,96.7v307h24.8V120.5h57.8V96.7H108.3z M186,96.7v7.4
	c-7.7,23.4-20.3,64.1-33.2,95.6c25.2,27.6,31.5,51.8,31.5,70.7c0,10.9-1.8,20.3-7.4,24.2c-2.8,2.1-6.3,3.1-10.8,3.1
	c-5.6,0.7-12.2,0.4-20.3-0.4c3.9,7,6.3,17.5,6.6,24.1c8.1,0.4,16.8,0.4,23.8-0.4c7.4-1,13.7-3.1,18.6-6.6c9.8-7.4,14-22.4,14-41.6
	c0-21.4-5.6-46.9-31.5-75.9c11.9-27.7,24.9-61.9,35.4-90.7l-17.9-10.5l-4.2,1H186z"/>
</svg>
